<?xml version="1.0" encoding="utf-8"?>
<!-- Generator: Adobe Illustrator 24.0.1, SVG Export Plug-In . SVG Version: 6.00 Build 0)  -->
<svg version="1.1" id="Layer_1" xmlns="http://www.w3.org/2000/svg" xmlns:xlink="http://www.w3.org/1999/xlink" x="0px" y="0px"
	 viewBox="0 0 1400 1250" style="enable-background:new 0 0 1400 1250;" xml:space="preserve">
<style type="text/css">
	.st0{fill:#FFFFFF;}
	.st1{opacity:0.2;fill:#B6DFFD;}
	.st2{opacity:0.5;fill:#B6DFFD;}
	.st3{clip-path:url(#SVGID_2_);}
	.st4{fill:#FF8926;}
	.st5{fill:#CE5D09;}
	.st6{fill:#5E9CEA;}
	.st7{fill:#73B0F4;}
	.st8{fill:#3473B7;}
	.st9{fill:#2B69A0;}
	.st10{fill:#2467A3;}
	.st11{opacity:0.1;}
	.st12{fill:#E8553E;}
	.st13{fill:#F4791C;}
	.st14{fill:#D84435;}
	.st15{opacity:0.8;fill:#FF9E55;}
	.st16{fill:#AAAAAA;}
	.st17{fill:#C9C9C9;}
	.st18{clip-path:url(#SVGID_4_);}
	.st19{fill:#D87439;}
	.st20{opacity:0.5;fill:#D69B61;}
	.st21{fill:#C65F2A;}
	.st22{fill:#D69B61;}
	.st23{clip-path:url(#SVGID_6_);}
	.st24{fill:#D89221;}
	.st25{opacity:0.5;fill:#D6AD49;}
	.st26{fill:#C67E14;}
	.st27{fill:#D6AD49;}
	.st28{fill:#70B2ED;}
	.st29{opacity:0.05;}
	.st30{opacity:0.5;fill:#FB836F;}
	.st31{fill:#D64334;}
	.st32{fill:#FA6C51;}
	.st33{opacity:0.5;fill:#EA6F13;}
	.st34{fill:#FFAC27;}
	.st35{opacity:0.5;fill:#FDCD56;}
	.st36{fill:#ED9718;}
	.st37{fill:#FDCD56;}
</style>
<rect class="st0" width="1400" height="1250"/>
<g>
	<path class="st1" d="M670.71,65.71c-45.95-21.15-94.15-33.01-143.06-20.16c-47.91,12.58-90.92,51.95-98.91,101.31
		c-7.35,45.42,14.48,91.03,8.87,136.67c-4.53,36.91-27.07,70.18-56.03,93.45c-28.96,23.27-63.95,37.5-99.36,47.85
		c-21.5,6.28-43.43,11.29-64.16,19.91C142.72,476.11,91.12,556.57,88.24,638.53c-2.88,81.96,40.38,161.96,106.62,208.1
		c52.65,36.67,116.44,52.55,177.57,72.05c47.75,15.23,95.14,33.28,136.64,61.38c63.74,43.16,110.24,107.63,170.09,156.1
		c47.08,38.12,103.49,66.31,163.86,72.33c41.11,4.1,82.73-2.09,123.3-10.99c39.03-8.56,78.02-19.84,112.85-39.91
		c40.69-23.45,74.21-58.1,102.74-95.73c57.15-75.39,95.82-163.53,123.92-253.88c25.52-82.02,42.41-172.22,12.38-251.76
		c-7.93-20.99-19.2-40.98-35.31-56.36c-15.18-14.49-34.05-24.37-53.14-32.99c-58.5-26.41-122.13-43.06-174.78-79.82
		c-47.46-33.13-84.55-80.12-117.5-127.19c-34.64-49.48-77.14-82.34-128.68-113.02C766.63,121.75,719.96,88.38,670.71,65.71z"/>
	<path class="st2" d="M735.3,237.61c-22.18,15-43.55,32.21-69.02,40.46c-49.69,16.1-102.82-4.84-151.86-22.81
		c-71.68-26.27-151.16-46.71-223.38-21.96c-49.71,17.04-90.71,54.36-119.73,98.18c-23.48,35.46-40.22,77.53-35.74,119.83
		c2.89,27.25,14.4,52.94,28.83,76.24c20.35,32.87,46.79,61.95,77.58,85.33c43.39,32.94,98.53,58.52,117.69,109.52
		c14.82,39.45,3.29,83.98-14.52,122.17c-17.81,38.19-41.86,73.78-53.68,114.23c-11.81,40.45-8.58,89.14,22.11,118.01
		c27.36,25.75,68.3,29.13,105.85,30.65c60.04,2.43,121.28,3.49,178.92-13.5c69.96-20.62,134.26-67.5,207.16-65.32
		c53.79,1.61,102.66,29.98,154.43,44.67c46.53,13.2,96.19,15.27,143.65,5.97c36.81-7.21,73.24-21.82,99.79-48.31
		c23.03-22.99,37.23-53.5,46.49-84.7c20.81-70.05,18.38-146.79-6.82-215.38c-17.92-48.79-47.06-93.89-56.19-145.05
		c-10.16-56.98,5.96-116.22,34.12-166.78c24.15-43.36,60.11-90.27,41.69-142.46c-12.27-34.76-38.62-59.7-71.4-73.78
		c-93.18-40.03-195.28-53.13-294.96-32.46C839.01,182.24,783.82,204.79,735.3,237.61z"/>
	<g>
		<defs>
			<path id="SVGID_1_" d="M904.31,1052.94c0,0,55.7,30.08,138.11,32.19s351.78-907.05,84.41-982.87s-782.14-86.9-885.89,20.4
				S41.43,519.48,71.36,635.09S7.51,901.76,185.08,913.03c177.58,11.27,350.05-2.7,433.41,45.19
				C701.85,1006.1,904.31,1052.94,904.31,1052.94z"/>
		</defs>
		<clipPath id="SVGID_2_">
			<use xlink:href="#SVGID_1_"  style="overflow:visible;"/>
		</clipPath>
		<g class="st3">
			<rect x="922.23" y="591.76" class="st4" width="72.98" height="542.7"/>
			<g>
				<path class="st5" d="M940.49,742.04c2.56,10.68,5.22,21.73,4.58,32.87c-1.09,19.18-11.4,35.54-22.84,51.08v-1.68
					c11.32-15.47,20.79-30.88,21.85-49.46c0.62-10.99-2.02-21.96-4.57-32.58c-2.12-8.83-4.31-17.96-4.66-27.15
					c-0.47-12.33,2.37-24.57,5.12-36.41c1.34-5.79,2.73-11.79,3.72-17.71c3.74-22.52,1.88-45.87-5.37-67.52l0.95-0.32
					c7.3,21.8,9.17,45.32,5.4,68c-0.99,5.96-2.38,11.97-3.73,17.78c-2.73,11.77-5.56,23.95-5.09,36.14
					C936.19,724.17,938.38,733.25,940.49,742.04z"/>
			</g>
			<g>
				<path class="st5" d="M995.21,689.36v2.13c-3.32-6.37-7.33-12.46-11.26-18.45l-0.11-0.17c-6.87-10.45-15.41-23.46-17.89-37.8
					c-2.18-12.6,1.34-29.67,14.22-37.38l0.51,0.86c-12.47,7.46-15.86,24.08-13.74,36.35c2.44,14.13,10.92,27.05,17.74,37.42
					l0.11,0.17C988.4,677.97,992.06,683.55,995.21,689.36z"/>
			</g>
			<g>
				<path class="st5" d="M951.05,965.85c3.6,19.25,1.88,32.73-5.42,42.44c-5.13,6.83-12.74,11.08-20.11,15.19
					c-1.09,0.61-2.19,1.22-3.29,1.85v-1.15c0.94-0.53,1.88-1.05,2.81-1.57c7.27-4.06,14.79-8.26,19.79-14.92
					c7.12-9.47,8.78-22.7,5.24-41.66c-0.46-2.4-0.95-4.82-1.45-7.24c-2.43-11.9-4.94-24.2-2.32-36.12
					c0.84-3.79,2.19-7.63,3.49-11.36c3.19-9.09,6.2-17.68,2.65-25.88c-4.03-9.27-15.61-13.02-24.49-11.28
					c-1.93,0.38-3.84,0.97-5.72,1.78v-1.09c1.82-0.74,3.67-1.31,5.53-1.67c10.75-2.11,21.75,3,25.59,11.86
					c3.71,8.56,0.5,17.74-2.62,26.61c-1.29,3.7-2.63,7.52-3.45,11.24c-2.58,11.72-0.09,23.91,2.33,35.71
					C950.1,961.01,950.6,963.44,951.05,965.85z"/>
			</g>
			<g>
				<path class="st5" d="M952.19,767.9c-1.17,13.85,5.18,26.94,11.31,39.6c5.9,12.19,12.01,24.79,11.63,38.25
					c-0.15,5.56-1.42,11.18-2.65,16.62c-2.04,8.99-3.96,17.49-1.32,25.85c3.51,11.14,13.34,17.37,24.05,23.65v1.16
					c-10.65-6.23-21.34-12.86-25.01-24.51c-2.71-8.62-0.67-17.64,1.3-26.37c1.22-5.39,2.48-10.96,2.63-16.43
					c0.37-13.22-5.68-25.71-11.53-37.78c-6.19-12.78-12.6-26-11.41-40.13c0.5-5.9,2.96-11.83,6.74-16.25
					c4.16-4.88,9.45-7.31,14.88-6.86c7.49,0.62,14.51,6.81,18.81,16.57c1.52,3.46,2.68,7.04,3.59,10.69v4.66
					c-1-5.13-2.4-10.15-4.51-14.94c-4.14-9.42-10.86-15.4-17.97-15.99C961.79,744.81,953.14,756.67,952.19,767.9z"/>
			</g>
			<g>
				<path class="st5" d="M995.21,947.62v1.02c-0.27-0.06-0.54-0.1-0.81-0.14c-9.56-1.36-19.7,6.09-21.27,15.62
					c-0.56,3.45-0.16,7.03,0.23,10.5c0.18,1.61,0.37,3.28,0.46,4.93c0.49,8.87-1.81,17.63-4.04,26.1c-1.02,3.9-2.09,7.94-2.86,11.93
					c-2.38,12.32-2.18,25.12-1.98,37.51c0.14,9.05,0.29,18.41-0.57,27.55c-1.69,18.11-7.55,35.97-16.75,51.82h-1.16
					c9.3-15.85,15.22-33.75,16.92-51.91c0.85-9.09,0.7-18.42,0.56-27.45c-0.2-12.43-0.4-25.29,2-37.71c0.78-4.02,1.84-8.08,2.88-12
					c2.2-8.39,4.49-17.07,4.01-25.78c-0.09-1.62-0.28-3.28-0.46-4.88c-0.4-3.53-0.81-7.19-0.22-10.77
					c1.68-10.22,12.14-17.91,22.39-16.45C994.76,947.54,994.99,947.58,995.21,947.62z"/>
			</g>
			<g>
				<path class="st5" d="M995.21,1032.79v1.35c-1.44,1.35-2.68,2.89-3.65,4.54c-5.35,9.14-4.66,20.68-3.45,29.71
					c0.23,1.77,0.49,3.55,0.76,5.32c1.23,8.38,2.51,17.03,0.95,25.45c-1.28,6.88-4.4,13.27-7.42,19.45
					c-2.49,5.1-5.05,10.35-6.57,15.85h-1.04c1.53-5.69,4.16-11.07,6.71-16.29c2.99-6.12,6.08-12.45,7.34-19.19
					c1.53-8.26,0.26-16.83-0.96-25.12c-0.27-1.78-0.53-3.56-0.77-5.34c-1.22-9.19-1.92-20.95,3.59-30.34
					C991.88,1036.18,993.42,1034.35,995.21,1032.79z"/>
			</g>
			<g>
				<path class="st5" d="M930.93,1082.06c-3.25,3.69-6.17,7.18-8.7,10.67v-1.69c2.36-3.15,5.02-6.32,7.95-9.64
					c5.67-6.43,10.6-13.32,8.26-20.09c-1.38-3.98-4.88-6.64-8.99-9.47c-1.89-1.31-3.91-2.55-5.93-2.16
					c-0.45,0.09-0.88,0.26-1.29,0.48v-1.11c0.35-0.15,0.71-0.27,1.1-0.35c2.4-0.46,4.62,0.89,6.69,2.31
					c4.25,2.94,7.89,5.71,9.36,9.97C941.89,1068.24,936.8,1075.4,930.93,1082.06z"/>
			</g>
			<g>
				<path class="st5" d="M981.99,689.56c-1.16-2.85-3.62-4.85-6.28-5.09c-0.93-0.08-1.86,0.04-2.75,0.16
					c-0.49,0.07-0.99,0.14-1.48,0.17c-0.72,0.05-2.5,0.03-3.37-1.11c-0.19-0.25-0.34-0.56-0.5-0.89c-0.24-0.48-0.48-0.99-0.91-1.39
					c-0.22-0.21-0.47-0.36-0.71-0.51c-0.36-0.22-0.67-0.42-0.79-0.73c-0.05-0.11,0.01-0.22,0.2-0.49c0.18-0.26,0.42-0.61,0.28-1.05
					c-0.28-0.89-0.78-1.61-1.43-2.14c-0.66-0.53-1.47-0.85-2.41-0.95c-1.78-0.18-3.69,0.53-5.22,1.97
					c-2.94,2.74-3.66,7.62-1.64,11.1c0.47,0.82,1.07,1.55,1.64,2.26c0.81,0.98,1.56,1.91,1.99,3.02c1.24,3.21-0.66,6.81-2.53,9.93
					c-2.14,3.57-3.9,7.35-2.39,10.85c1.67,3.85,6.48,4.92,9.2,5.21c0.65,0.07,1.39,0.13,2.17,0.13c1.8,0,3.82-0.31,5.48-1.5
					c2.58-1.85,3.35-5.04,4.1-8.13c0.74-3.04,1.44-5.92,3.72-7.55c0.33-0.23,0.68-0.44,1.03-0.64c0.73-0.42,1.49-0.85,2.05-1.55
					c0.68-0.85,0.93-1.93,1.1-2.97C983.07,694.43,982.89,691.78,981.99,689.56z M981.55,697.51c-0.17,1.04-0.39,1.87-0.9,2.51
					c-0.44,0.55-1.08,0.92-1.75,1.3c-0.38,0.22-0.77,0.44-1.12,0.7c-2.58,1.85-3.36,5.04-4.11,8.13c-0.74,3.04-1.44,5.91-3.71,7.55
					c-1.6,1.15-3.81,1.52-6.96,1.19c-2.5-0.27-6.92-1.23-8.39-4.62c-1.34-3.09,0.33-6.6,2.33-9.93c1.99-3.33,4.01-7.18,2.6-10.81
					c-0.48-1.26-1.33-2.29-2.14-3.29c-0.55-0.68-1.13-1.38-1.56-2.13c-1.79-3.09-1.15-7.43,1.46-9.87c1.19-1.11,2.62-1.73,3.98-1.73
					c0.16,0,0.31,0.01,0.46,0.03c1.48,0.15,2.54,1,2.99,2.32c-0.02,0.05-0.1,0.17-0.16,0.25c-0.2,0.3-0.55,0.8-0.3,1.42
					c0.24,0.63,0.75,0.94,1.19,1.22c0.21,0.13,0.41,0.25,0.56,0.39c0.29,0.28,0.49,0.68,0.69,1.1c0.17,0.35,0.35,0.72,0.61,1.06
					c1.12,1.46,3.13,1.57,4.22,1.5c0.52-0.03,1.04-0.1,1.56-0.18c0.87-0.12,1.69-0.23,2.52-0.16c2.25,0.21,4.44,2.01,5.44,4.48
					C981.89,691.98,982.05,694.45,981.55,697.51z"/>
			</g>
			<path class="st6" d="M1143.4,635.09H666.3V281.69h355.95c66.91,0,121.14,54.24,121.14,121.14V635.09z"/>
			<path class="st7" d="M782.42,635.09H550.18V389.26c0-59.41,48.16-107.57,107.57-107.57h17.1c59.41,0,107.57,48.16,107.57,107.57
				V635.09z"/>
			<path class="st8" d="M762.23,635.09H570.38V402.86c0-52.98,42.95-95.92,95.92-95.92h0c52.98,0,95.92,42.95,95.92,95.92V635.09z"
				/>
			<path class="st9" d="M685.87,308.93c-6.32-1.31-12.86-2-19.56-2l0,0c-52.98,0-95.92,42.95-95.92,95.92v232.24h39.13V402.86
				C609.51,356.58,642.27,317.97,685.87,308.93z"/>
			<rect x="782.42" y="609.85" class="st7" width="360.98" height="25.24"/>
			<rect x="782.42" y="406.64" class="st8" width="360.98" height="203.21"/>
			<rect x="782.42" y="406.64" class="st10" width="360.98" height="10.1"/>
			<rect x="879.61" y="281.69" class="st11" width="10.1" height="175.44"/>
			<g>
				<polygon class="st12" points="1038.64,233.73 866.99,233.73 866.99,142.85 1038.64,142.85 994.47,189.55 				"/>
				<path class="st4" d="M883.4,458.39h-32.82V139.06c0-9.06,7.35-16.41,16.41-16.41h0c9.06,0,16.41,7.35,16.41,16.41V458.39z"/>
				<path class="st13" d="M858.15,144.11c0-9.06,7.35-16.41,16.41-16.41c1.72,0,3.38,0.27,4.94,0.76c-3.01-3.55-7.5-5.81-12.51-5.81
					c-9.06,0-16.41,7.35-16.41,16.41v319.33h7.57V144.11z"/>
				<rect x="883.4" y="142.85" class="st14" width="7.57" height="90.88"/>
				<path class="st15" d="M872.67,313.24L872.67,313.24c-3.14,0-5.68-2.54-5.68-5.68V212.9c0-3.14,2.54-5.68,5.68-5.68l0,0
					c3.14,0,5.68,2.54,5.68,5.68v94.66C878.35,310.7,875.8,313.24,872.67,313.24z"/>
			</g>
			<g>
				<circle class="st16" cx="866.36" cy="465.33" r="24.61"/>
				<circle class="st17" cx="870.14" cy="465.33" r="24.61"/>
				<circle class="st16" cx="870.77" cy="464.7" r="12.62"/>
			</g>
			<g>
				<defs>
					<rect id="SVGID_3_" x="653.98" y="517.71" width="61.25" height="111.07"/>
				</defs>
				<clipPath id="SVGID_4_">
					<use xlink:href="#SVGID_3_"  style="overflow:visible;"/>
				</clipPath>
				<g class="st18">
					<path class="st19" d="M824.17,521.73v103.39c0,1.99-1.61,3.6-3.6,3.6H661.35c-1.99,0-3.6-1.61-3.6-3.6V521.73
						c0-1.99,1.61-3.6,3.6-3.6h159.21C822.56,518.13,824.17,519.74,824.17,521.73z"/>
					<path class="st20" d="M824.17,617.18v7.94c0,1.99-1.61,3.6-3.6,3.6H661.35c-1.99,0-3.6-1.61-3.6-3.6v-7.94
						c12.74-23.42,45.2-40.07,83.21-40.07C778.98,577.11,811.43,593.76,824.17,617.18z"/>
					<path class="st21" d="M818.25,518.13l-68.21,71.63c-4.92,4.92-12.97,4.92-17.88,0l-68.74-71.63H818.25z"/>
					<path class="st22" d="M818.51,518.13l-68.47,68.47c-4.92,4.92-12.97,4.92-17.88,0l-68.47-68.47H818.51z"/>
				</g>
			</g>
			<g>
				<defs>
					<rect id="SVGID_5_" x="684.27" y="489.94" width="77.96" height="141.36"/>
				</defs>
				<clipPath id="SVGID_6_">
					<use xlink:href="#SVGID_5_"  style="overflow:visible;"/>
				</clipPath>
				<g class="st23">
					<path class="st24" d="M900.88,495.06v131.59c0,2.53-2.05,4.58-4.58,4.58H693.66c-2.53,0-4.58-2.05-4.58-4.58V495.06
						c0-2.53,2.05-4.58,4.58-4.58h202.64C898.83,490.48,900.88,492.53,900.88,495.06z"/>
					<path class="st25" d="M900.88,616.54v10.11c0,2.53-2.05,4.58-4.58,4.58H693.66c-2.53,0-4.58-2.05-4.58-4.58v-10.11
						c16.22-29.81,57.52-50.99,105.9-50.99C843.37,565.55,884.66,586.73,900.88,616.54z"/>
					<path class="st26" d="M893.34,490.48l-86.81,91.17c-6.26,6.26-16.5,6.26-22.76,0l-87.48-91.17H893.34z"/>
					<path class="st27" d="M893.68,490.48l-87.15,87.15c-6.26,6.26-16.5,6.26-22.76,0l-87.15-87.15H893.68z"/>
				</g>
			</g>
			<g>
				<path class="st28" d="M784.95,666.65H406.3c-10.46,0-18.93-8.48-18.93-18.93v0c0-10.46,8.48-18.93,18.93-18.93h378.65
					c10.46,0,18.93,8.48,18.93,18.93v0C803.88,658.17,795.4,666.65,784.95,666.65z"/>
				<path class="st6" d="M784.95,666.65H661.26c-10.46,0-18.93-8.48-18.93-18.93v0c0-10.46,8.48-18.93,18.93-18.93h123.69
					c10.46,0,18.93,8.48,18.93,18.93v0C803.88,658.17,795.4,666.65,784.95,666.65z"/>
			</g>
			<path class="st29" d="M1022.26,281.69h-22.3c-0.07,69.19-5.96,237.3-57.42,353.41h200.87V402.83
				C1143.4,335.93,1089.16,281.69,1022.26,281.69z"/>
			<g>
				<path class="st12" d="M650.8,298.36l-85.7,114.27c-1.65,2.2-4.77,2.65-6.97,1L382.16,281.65c-2.2-1.65-2.65-4.77-1-6.97
					l85.7-114.27c1.65-2.2,4.77-2.65,6.97-1L649.8,291.39C652,293.04,652.45,296.16,650.8,298.36z"/>
				<path class="st30" d="M571.68,403.85l-6.58,8.78c-1.65,2.2-4.77,2.65-6.97,1L382.16,281.65c-2.2-1.65-2.65-4.77-1-6.97
					l6.58-8.78c33.5-15.33,83.17-6.82,125.18,24.69C554.95,322.11,577.01,367.4,571.68,403.85z"/>
				<path class="st31" d="M647.24,289.47L512.47,312.1c-9.51,1.36-18.41-5.31-19.77-14.83l-16.59-136.15L647.24,289.47z"/>
				<path class="st32" d="M647.53,289.69l-132.44,18.92c-9.51,1.36-18.41-5.31-19.77-14.83L476.4,161.34L647.53,289.69z"/>
			</g>
			<rect x="922.23" y="635.09" class="st33" width="72.98" height="18.51"/>
			<g>
				<path class="st34" d="M591.15,367.99l-29.27,145.85c-0.56,2.81-3.29,4.63-6.1,4.06l-224.6-45.08c-2.81-0.56-4.63-3.29-4.06-6.1
					l29.27-145.85c0.56-2.81,3.29-4.63,6.1-4.06l224.6,45.08C589.89,362.45,591.71,365.18,591.15,367.99z"/>
				<path class="st35" d="M564.12,502.63l-2.25,11.2c-0.56,2.81-3.29,4.63-6.1,4.06l-224.6-45.08c-2.81-0.56-4.63-3.29-4.06-6.1
					l2.25-11.2c24.61-29.44,75.1-43.72,128.73-32.96C511.72,433.32,552.77,465.98,564.12,502.63z"/>
				<path class="st36" d="M583.82,361.23l-116.51,81.74c-8.33,5.55-19.68,3.27-25.23-5.06L365.4,317.39L583.82,361.23z"/>
				<path class="st37" d="M584.19,361.3L468.2,438.51c-8.33,5.55-19.68,3.27-25.23-5.06l-77.21-115.98L584.19,361.3z"/>
			</g>
			<g>
				<path class="st34" d="M278.83,481.4l111.02,99.02c2.14,1.91,2.32,5.18,0.42,7.32L237.79,758.69c-1.91,2.14-5.18,2.32-7.32,0.42
					l-111.02-99.02c-2.14-1.91-2.32-5.18-0.42-7.32l152.48-170.96C273.42,479.68,276.69,479.49,278.83,481.4z"/>
				<path class="st35" d="M381.32,572.81l8.53,7.61c2.14,1.91,2.32,5.18,0.42,7.32L237.79,758.69c-1.91,2.14-5.18,2.32-7.32,0.42
					l-8.53-7.61c-12.95-36.12,0.26-86.9,36.67-127.72C295.02,582.96,343.96,564.06,381.32,572.81z"/>
				<path class="st36" d="M269.29,484.3l11.59,141.85c0.57,9.99-7.14,18.63-17.13,19.2l-142.75,5.2L269.29,484.3z"/>
				<path class="st37" d="M269.55,484.02l7.95,139.1c0.57,9.99-7.14,18.63-17.13,19.2l-139.1,7.95L269.55,484.02z"/>
			</g>
			<g>
				<path class="st12" d="M627.93,410.08l39.86,137.17c0.77,2.64-0.75,5.4-3.39,6.17l-211.23,61.38c-2.64,0.77-5.4-0.75-6.17-3.39
					l-39.86-137.17c-0.77-2.64,0.75-5.4,3.39-6.17l211.23-61.38C624.4,405.92,627.16,407.44,627.93,410.08z"/>
				<path class="st30" d="M664.72,536.71l3.06,10.54c0.77,2.64-0.75,5.4-3.39,6.17l-211.23,61.38c-2.64,0.77-5.4-0.75-6.17-3.39
					l-3.06-10.54c7.88-35.99,44.52-70.58,94.95-85.23C589.33,500.97,638.78,510.54,664.72,536.71z"/>
				<path class="st31" d="M618.68,407.58l-62.88,121.33c-4.63,8.42-15.31,11.52-23.73,6.89l-118.81-68.54L618.68,407.58z"/>
				<path class="st32" d="M619.03,407.48l-64.45,117.24c-4.63,8.42-15.31,11.52-23.73,6.89l-117.24-64.45L619.03,407.48z"/>
			</g>
		</g>
	</g>
</g>
</svg>
